<?xml version="1.0" standalone="no"?>
<!DOCTYPE svg PUBLIC "-//W3C//DTD SVG 20010904//EN"
 "http://www.w3.org/TR/2001/REC-SVG-20010904/DTD/svg10.dtd">
<svg version="1.0" xmlns="http://www.w3.org/2000/svg"
 width="500.000000pt" height="500.000000pt" viewBox="0 0 500.000000 500.000000"
 preserveAspectRatio="xMidYMid meet">

<g transform="translate(0.000000,500.000000) scale(0.100000,-0.100000)"
fill="#000000" stroke="none">
<path d="M998 3398 c-27 -21 -645 -854 -651 -877 -3 -11 -3 -31 0 -42 6 -23
585 -803 636 -856 l31 -33 1818 0 1819 0 24 25 25 24 0 861 0 861 -25 24 -24
25 -1819 0 c-1439 0 -1821 -3 -1834 -12z m2182 -813 l0 -275 -49 0 c-28 0 -51
5 -53 11 -3 8 -14 6 -37 -6 -63 -32 -160 5 -196 75 -19 37 -19 123 0 160 36
69 123 104 190 76 20 -9 39 -16 41 -16 2 0 4 56 4 125 l0 125 50 0 50 0 0
-275z m-1475 191 c71 -30 100 -136 51 -193 l-24 -27 28 -26 c54 -51 48 -148
-13 -194 -25 -19 -44 -21 -173 -24 l-144 -3 0 240 0 241 120 0 c82 0 132 -5
155 -14z m1825 -1 c73 -38 95 -134 45 -194 -25 -29 -26 -30 -6 -41 47 -25 64
-105 36 -161 -31 -58 -64 -69 -217 -69 l-138 0 0 240 0 240 125 0 c92 0 134
-4 155 -15z m-1462 -187 l3 -48 -40 0 c-63 0 -81 -31 -81 -141 l0 -89 -50 0
-50 0 0 160 0 160 50 0 c45 0 50 -2 50 -22 0 -15 3 -19 8 -11 12 19 65 44 87
41 16 -3 21 -12 23 -50z m262 30 c49 -25 90 -89 90 -140 l0 -28 -120 0 c-100
0 -120 -2 -120 -15 0 -23 37 -55 64 -55 13 0 35 9 49 20 31 24 117 29 117 6 0
-26 -50 -74 -95 -92 -87 -33 -193 5 -230 81 -23 51 -17 130 15 175 48 67 150
88 230 48z m390 -5 c40 -23 67 -67 76 -121 l7 -42 -126 0 c-121 0 -125 -1
-120 -20 7 -26 41 -50 69 -50 12 0 33 9 47 20 25 20 117 30 117 13 0 -21 -43
-74 -72 -90 -47 -25 -143 -24 -188 3 -55 32 -80 77 -80 144 0 71 27 116 90
148 53 28 129 25 180 -5z m1050 -86 c0 -108 7 -127 45 -127 38 0 45 19 45 127
l0 103 56 0 56 0 -4 -119 c-4 -126 -14 -155 -62 -186 -41 -27 -116 -30 -170
-7 -64 29 -76 60 -76 202 l0 110 55 0 55 0 0 -103z m358 1 c45 -116 36 -118
87 25 l28 77 54 0 c47 0 54 -2 49 -17 -3 -10 -48 -124 -100 -253 l-94 -235
-57 -3 c-44 -2 -56 0 -52 10 2 7 19 48 37 91 l33 78 -53 132 c-30 73 -60 147
-67 165 l-13 32 54 0 55 0 39 -102z m-3298 77 c55 -28 76 -105 45 -165 -22
-42 -53 -60 -106 -60 -59 0 -103 34 -120 90 -31 102 83 186 181 135z"/>
<path d="M2951 2514 c-12 -15 -21 -34 -21 -44 0 -10 9 -29 21 -44 41 -52 129
-22 129 44 0 66 -88 96 -129 44z"/>
<path d="M1540 2645 l0 -45 53 0 c57 0 77 12 77 45 0 33 -20 45 -77 45 l-53 0
0 -45z"/>
<path d="M1540 2460 l0 -50 65 0 c54 0 66 3 75 20 26 48 -13 80 -96 80 l-44 0
0 -50z"/>
<path d="M3360 2645 l0 -45 53 0 c57 0 77 12 77 45 0 33 -20 45 -77 45 l-53 0
0 -45z"/>
<path d="M3367 2503 c-4 -3 -7 -26 -7 -50 l0 -43 64 0 c69 0 90 13 84 52 -2
12 -14 28 -28 35 -26 13 -102 18 -113 6z"/>
<path d="M2213 2550 c-42 -17 -25 -30 39 -30 54 0 60 2 48 14 -20 20 -60 27
-87 16z"/>
<path d="M2594 2550 c-46 -18 -36 -30 25 -30 64 0 80 13 35 30 -29 12 -32 12
-60 0z"/>
</g>
</svg>
